<?xml version="1.0" encoding="UTF-8" standalone="no"?>
<!-- Created with Inkscape (http://www.inkscape.org/) -->

<svg
   width="40"
   height="40"
   viewBox="0 0 10.583333 10.583333"
   version="1.1"
   id="svg5"
   inkscape:version="1.1 (c68e22c387, 2021-05-23)"
   sodipodi:docname="weevilIcon.svg"
   xmlns:inkscape="http://www.inkscape.org/namespaces/inkscape"
   xmlns:sodipodi="http://sodipodi.sourceforge.net/DTD/sodipodi-0.dtd"
   xmlns="http://www.w3.org/2000/svg"
   xmlns:svg="http://www.w3.org/2000/svg">
  <sodipodi:namedview
     id="namedview7"
     pagecolor="#ffffff"
     bordercolor="#666666"
     borderopacity="1.0"
     inkscape:pageshadow="2"
     inkscape:pageopacity="0.0"
     inkscape:pagecheckerboard="true"
     inkscape:document-units="mm"
     showgrid="false"
     showguides="false"
     inkscape:lockguides="false"
     inkscape:zoom="14.795753"
     inkscape:cx="12.90911"
     inkscape:cy="22.675426"
     inkscape:window-width="1920"
     inkscape:window-height="1017"
     inkscape:window-x="-8"
     inkscape:window-y="-8"
     inkscape:window-maximized="1"
     inkscape:current-layer="layer1"
     units="px" />
  <defs
     id="defs2" />
  <g
     inkscape:label="Warstwa 1"
     inkscape:groupmode="layer"
     id="layer1">
    <ellipse
       style="fill:#000000;stroke:#000000;stroke-width:0.133373"
       id="path968"
       cx="1.3891875"
       cy="8.0263538"
       rx="2.9587436"
       ry="3.7432389"
       transform="matrix(0.85965838,-0.51086933,0.51565215,0.85679803,0,0)" />
    <rect
       style="fill:#000000;stroke:#000000;stroke-width:0.0904348"
       id="rect1094"
       width="3.1868584"
       height="3.2046375"
       x="1.178355"
       y="-6.2714596"
       transform="matrix(-0.23725374,0.97144771,-0.97126656,-0.23799427,0,0)" />
    <rect
       style="fill:#000000;stroke:#000000;stroke-width:0.125336"
       id="rect1300"
       width="0.40632263"
       height="2.1943371"
       x="1.1434537"
       y="2.4870737"
       transform="matrix(0.85965838,-0.51086933,0.51565215,0.85679803,0,0)" />
    <rect
       style="fill:#000000;stroke:#000000;stroke-width:0.125335"
       id="rect1404"
       width="0.3373259"
       height="2.8125837"
       x="-5.0050969"
       y="2.6873205"
       transform="matrix(0.37628069,-0.92650572,0.92814889,0.37220914,0,0)" />
    <rect
       style="fill:#000000;stroke:#000000;stroke-width:0.125336"
       id="rect1406-5"
       width="0.23648858"
       height="2.6053112"
       x="7.0846791"
       y="1.3166323"
       transform="matrix(0.61924376,0.78519881,-0.78898751,0.61440923,0,0)" />
    <rect
       style="fill:#000000;stroke:#000000;stroke-width:0.125336"
       id="rect1406-5-6"
       width="0.23705862"
       height="2.5990353"
       x="7.3395653"
       y="4.6158218"
       transform="matrix(0.87389514,0.48611448,-0.49081973,0.87126115,0,0)" />
    <rect
       style="fill:#000000;stroke:#000000;stroke-width:0.125335"
       id="rect1404-0"
       width="0.33913887"
       height="2.7975242"
       x="-7.1144843"
       y="0.83389956"
       transform="matrix(-0.99411116,-0.10836517,-0.10972835,0.99396161,0,0)" />
    <rect
       style="fill:#000000;stroke:#000000;stroke-width:0.125335"
       id="rect1406-5-64"
       width="0.23615997"
       height="2.6089153"
       x="6.6819086"
       y="4.3375874"
       transform="matrix(0.40372217,0.91488164,0.91675022,-0.39946092,0,0)" />
    <rect
       style="fill:#000000;stroke:#000000;stroke-width:0.125335"
       id="rect1406-5-6-8"
       width="0.23591836"
       height="2.6115592"
       x="5.7843351"
       y="7.2743721"
       transform="matrix(0.01759944,0.99984512,0.99984899,-0.01737828,0,0)" />
    <rect
       style="fill:#000000;stroke:#000000;stroke-width:0.125335"
       id="rect2744"
       width="0.1686116"
       height="1.271129"
       x="-0.97256321"
       y="1.8714671"
       transform="matrix(0.30529635,-0.95225739,0.95336814,0.30180986,0,0)" />
    <rect
       style="fill:#000000;stroke:#000000;stroke-width:0.125335"
       id="rect2744-5"
       width="0.16953549"
       height="1.2641976"
       x="2.8636186"
       y="0.0083488096"
       transform="matrix(0.97815376,0.2078827,-0.21041296,0.9776126,0,0)" />
    <rect
       style="fill:#f9f9f9;stroke:#000000;stroke-width:0.122848"
       id="rect3116"
       width="3.2242265"
       height="0.6282177"
       x="-0.29468513"
       y="6.4968214"
       transform="matrix(0.85965838,-0.51086933,0.51565215,0.85679803,0,0)" />
    <rect
       style="fill:#f9f9f9;stroke:#000000;stroke-width:0.125336"
       id="rect3118"
       width="3.319351"
       height="0.63225621"
       x="-0.29343957"
       y="8.2035894"
       transform="matrix(0.85965838,-0.51086933,0.51565215,0.85679803,0,0)" />
    <rect
       style="fill:#f9f9f9;stroke:#000000;stroke-width:0.125336"
       id="rect3120"
       width="2.4661074"
       height="0.57290977"
       x="0.12014602"
       y="9.8268318"
       transform="matrix(0.85965838,-0.51086933,0.51565215,0.85679803,0,0)" />
    <ellipse
       style="fill:#f9f9f9;stroke:#000000;stroke-width:0.0821296"
       id="path3304"
       ry="0.53983605"
       rx="0.30141163"
       cy="3.8435559"
       cx="2.2267232"
       transform="matrix(0.98179494,-0.18994394,0.19227344,0.98134139,0,0)" />
    <ellipse
       style="fill:#f9f9f9;stroke:#000000;stroke-width:0.0821301"
       id="path3304-3"
       ry="0.54176664"
       rx="0.30034247"
       cy="4.7864366"
       cx="-0.31242773"
       transform="matrix(-0.635171,0.77237154,0.77629404,0.63037098,0,0)" />
  </g>
</svg>
